<svg width="480" height="240" viewBox="0 0 480 240" fill="none" xmlns="http://www.w3.org/2000/svg">
  <rect width="480" height="240" rx="24" fill="#DCE7F4"/>
  <rect x="0" y="162" width="480" height="78" fill="#BEC9D6"/>
  <rect x="38" y="146" width="404" height="16" rx="8" fill="#8897A6"/>
  <rect x="72" y="102" width="66" height="44" rx="12" fill="#C58B5F"/>
  <path d="M105 102C105 74 84 60 66 58C70 82 80 94 105 102Z" fill="#6D9B63"/>
  <path d="M105 102C105 74 126 60 144 58C140 82 130 94 105 102Z" fill="#5E8857"/>
  <rect x="204" y="88" width="76" height="58" rx="12" fill="#B77E55"/>
  <path d="M242 88C242 50 212 34 188 34C194 58 208 76 242 88Z" fill="#7AA56D"/>
  <path d="M242 88C242 50 272 34 296 34C290 58 276 76 242 88Z" fill="#668F5C"/>
  <rect x="338" y="100" width="70" height="46" rx="12" fill="#C58B5F"/>
  <path d="M373 100C373 68 349 55 329 54C334 78 346 92 373 100Z" fill="#6D9B63"/>
  <path d="M373 100C373 68 397 55 417 54C412 78 400 92 373 100Z" fill="#5E8857"/>
  <circle cx="402" cy="50" r="22" fill="#F1D37B"/>
</svg>
